<?xml version="1.0" encoding="UTF-8"?>
<svg version="1.1" xmlns="http://www.w3.org/2000/svg" width="530" height="471">
<path d="M0 0 C0.91007813 -0.0721875 1.82015625 -0.144375 2.7578125 -0.21875 C10.9603171 1.67255432 17.99475664 11.45916981 23.7734375 17.23046875 C25.14769394 18.59973259 25.14769394 18.59973259 26.54971313 19.99665833 C28.47256848 21.91357647 30.39339798 23.8324981 32.31298828 25.75268555 C34.76913316 28.2089328 37.23213482 30.65818119 39.69687462 33.10579967 C42.06022307 35.45536416 44.41637792 37.81209549 46.7734375 40.16796875 C47.65671722 41.04406296 48.53999695 41.92015717 49.45004272 42.82279968 C50.26494171 43.6407753 51.0798407 44.45875092 51.91943359 45.30151367 C52.63698822 46.01764328 53.35454285 46.73377289 54.09384155 47.47160339 C57.44054641 51.282856 58.33445972 54.34008075 58.19140625 59.48046875 C57.32360195 65.01941718 52.75030923 68.81373024 48.875 72.5 C48.05 73.325 47.225 74.15 46.375 75 C43.875 77.5 41.375 80 38.875 82.5 C38.05 83.345625 37.225 84.19125 36.375 85.0625 C33.875 87.5 33.875 87.5 31.3125 89.5 C28.81074543 91.40744373 28.81074543 91.40744373 27 93.875 C25.19897164 96.09979974 23.55525831 97.69084948 21.375 99.5 C19.26666609 101.25174467 17.65653789 102.77483943 15.9375 104.9375 C13.51079143 107.95250156 10.76347956 110.29201752 7.83203125 112.8046875 C4.60574534 115.59951401 1.65355097 118.47982976 -0.9375 121.875 C-3.43743329 124.87491995 -6.2108864 127.27139726 -9.171875 129.8046875 C-11.61245323 131.9231094 -13.87107716 134.18516033 -16.125 136.5 C-16.970625 137.325 -17.81625 138.15 -18.6875 139 C-21.13396893 141.42763704 -21.13396893 141.42763704 -23.125 144 C-26.60714406 148.35268007 -30.6600049 151.98989481 -34.8125 155.6875 C-39.41060093 159.78311385 -43.72933361 164.09327155 -47.99609375 168.53125 C-50.9162376 171.2317133 -53.3029415 171.6234005 -57.1340332 171.67700195 C-57.93529129 171.68983719 -58.73654938 171.70267242 -59.56208801 171.71589661 C-60.42460678 171.72328354 -61.28712555 171.73067047 -62.17578125 171.73828125 C-63.06734421 171.746353 -63.95890717 171.75442474 -64.87748718 171.76274109 C-66.76457786 171.77656906 -68.65169342 171.78729697 -70.53881836 171.79516602 C-73.416338 171.81237345 -76.29270681 171.85626988 -79.16992188 171.90039062 C-81.0051999 171.91051855 -82.84048768 171.91903434 -84.67578125 171.92578125 C-85.53222733 171.94328934 -86.3886734 171.96079742 -87.27107239 171.97883606 C-92.70718565 171.95921915 -95.83596953 171.15689324 -100.125 167.5 C-102.65275351 163.70836973 -102.34943035 160.69125969 -102.25 156.3125 C-102.24097656 155.56291016 -102.23195313 154.81332031 -102.22265625 154.04101562 C-102.19912578 152.19387346 -102.16325561 150.34689588 -102.125 148.5 C-103.30473389 148.53927612 -103.30473389 148.53927612 -104.50830078 148.5793457 C-108.08866216 148.68359476 -111.66870381 148.7484175 -115.25 148.8125 C-117.10625 148.8753418 -117.10625 148.8753418 -119 148.93945312 C-129.27756634 149.07759246 -129.27756634 149.07759246 -132.9296875 146.10546875 C-135.67787911 142.84382497 -136.36575308 141.06183776 -136.625 136.875 C-136.73328125 135.64910156 -136.73328125 135.64910156 -136.84375 134.3984375 C-134.64737163 125.541303 -123.55201784 117.78544286 -117.1628418 111.40844727 C-115.96289264 110.20714086 -114.76315584 109.00562231 -113.56361389 107.8039093 C-110.32665502 104.56241754 -107.08657263 101.32406534 -103.84575629 98.08643079 C-100.44993417 94.69315025 -97.0565636 91.29741949 -93.66279602 87.90208435 C-87.97124823 82.2087216 -82.27760449 76.51746131 -76.58276367 70.82739258 C-69.99436623 64.24445216 -63.40960011 57.65789585 -56.82667798 51.06948048 C-51.16979196 45.40806283 -45.5109676 39.74858819 -39.85050517 34.09074634 C-36.47143446 30.71323611 -33.09304664 27.33505026 -29.71640587 23.95511055 C-26.54790183 20.78372656 -23.37697823 17.61478217 -20.2041378 14.44773674 C-19.03821962 13.28314481 -17.87315897 12.11769366 -16.70900345 10.95133972 C-15.12496126 9.3645812 -13.53789753 7.78090925 -11.94999695 6.19801331 C-10.61689499 4.86547689 -10.61689499 4.86547689 -9.25686169 3.50602055 C-6.16297969 0.59476655 -4.17555593 0.2326215 0 0 Z M-4.0015564 33.25213623 C-4.55115021 33.80532532 -5.10074402 34.3585144 -5.66699219 34.9284668 C-6.24432098 35.50564957 -6.82164978 36.08283234 -7.41647339 36.67750549 C-9.33731839 38.5990508 -11.25458871 40.52412312 -13.171875 42.44921875 C-14.50346446 43.78267317 -15.8352748 45.11590705 -17.16729736 46.44892883 C-20.68572002 49.97118037 -24.20113327 53.49642087 -27.71594238 57.02227783 C-31.27759831 60.59410301 -34.84202819 64.16315744 -38.40625 67.73242188 C-44.17483305 73.50980441 -49.94171333 79.28888005 -55.70632935 85.07022095 C-58.84329873 88.21607457 -61.98290016 91.35926848 -65.125 94.5 C-65.95 95.325 -66.775 96.15 -67.625 97 C-70.125 99.5 -72.625 102 -75.125 104.5 C-76.3625 105.7684375 -76.3625 105.7684375 -77.625 107.0625 C-80.01678403 109.39448943 -82.51894339 111.41515471 -85.125 113.5 C-88.76249832 116.9556234 -91.96379762 120.61623708 -95.125 124.5 C-94.00351562 124.62955078 -94.00351562 124.62955078 -92.859375 124.76171875 C-84.7328054 125.92113771 -84.7328054 125.92113771 -81.5 129 C-78.21209903 134.97800176 -79.06383138 140.7714522 -79.125 147.5 C-72.06686426 149.01380276 -65.0310628 149.81569881 -58.5823288 145.99258423 C-52.2693685 141.11617215 -46.80346947 135.30638305 -41.32821989 129.52831078 C-38.91488047 127.00141171 -36.44944099 124.52635563 -33.9894104 122.04504395 C-29.35232877 117.35231052 -24.76299095 112.61569071 -20.18960631 107.86094904 C-14.97524329 102.44444807 -9.70884035 97.07978948 -4.43774676 91.71857166 C6.39151475 80.70183657 17.15459572 69.62275656 27.875 58.5 C26.02100333 54.48105609 23.3662998 51.71879706 20.24609375 48.640625 C19.6963942 48.09138367 19.14669464 47.54214233 18.58033752 46.97625732 C17.42189145 45.82082415 16.26102406 44.66781416 15.09790039 43.51708984 C13.31009149 41.74761619 11.53049296 39.97019144 9.75195312 38.19140625 C8.62547231 37.06983792 7.49853505 35.94872781 6.37109375 34.828125 C5.83568466 34.29382874 5.30027557 33.75953247 4.74864197 33.20904541 C0.35995651 28.85749085 0.35995651 28.85749085 -4.0015564 33.25213623 Z " fill="#000000" transform="translate(374.125,100.5)"/>
<path d="M0 0 C0.97988892 -0.00619858 1.95977783 -0.01239716 2.96936035 -0.01878357 C5.03701791 -0.02587403 7.10473264 -0.02272127 9.17236328 -0.01000977 C12.33342599 0.00386095 15.49153069 -0.03023284 18.65234375 -0.06835938 C20.66406322 -0.06931057 22.6757864 -0.06745175 24.6875 -0.0625 C25.63032837 -0.07575821 26.57315674 -0.08901642 27.54455566 -0.10267639 C32.16270471 -0.03723246 34.18255294 0.0468117 37.91601562 2.98071289 C41.02969884 7.15713373 40.96690198 10.13396424 40.90625 15.19140625 C40.90173828 15.8978125 40.89722656 16.60421875 40.89257812 17.33203125 C40.88078875 19.076859 40.86285324 20.82164325 40.84375 22.56640625 C41.98589966 22.54284058 41.98589966 22.54284058 43.15112305 22.51879883 C46.6110894 22.45632172 50.0709369 22.41737453 53.53125 22.37890625 C54.72943359 22.35376953 55.92761719 22.32863281 57.16210938 22.30273438 C58.31904297 22.29306641 59.47597656 22.28339844 60.66796875 22.2734375 C61.73104248 22.25772705 62.79411621 22.2420166 63.8894043 22.22583008 C68.11671394 22.71315319 70.73550418 24.38492833 73.6171875 27.45703125 C75.91263235 31.40461157 75.66881942 35.17425763 74.84375 39.56640625 C73.51897335 41.55202293 73.51897335 41.55202293 71.78025818 43.40194702 C71.14298231 44.08889019 70.50570644 44.77583336 69.84911919 45.48359299 C68.85646144 46.51458555 68.85646144 46.51458555 67.84375 47.56640625 C67.24060534 48.20345112 66.63746067 48.84049599 66.01603889 49.49684525 C64.10485255 51.49663064 62.17299008 53.47431713 60.23461914 55.44775391 C59.14509949 56.56158699 59.14509949 56.56158699 58.03356934 57.69792175 C51.37227736 64.4988194 44.68020448 71.26952849 37.97916508 78.03124428 C33.49288782 82.5585 29.01690652 87.09496615 24.56420898 91.65527344 C20.23420393 96.08951015 15.87965433 100.49823474 11.50723076 104.89063644 C9.85649852 106.5571998 8.21436445 108.23233 6.58156013 109.91646194 C-3.28837886 120.08169291 -11.37655088 126.90325871 -25.15625 130.56640625 C-27.0179263 131.18905743 -28.87621636 131.82201202 -30.72949219 132.46923828 C-32.38618184 133.00789918 -34.04406502 133.54290325 -35.703125 134.07421875 C-36.60645569 134.366987 -37.50978638 134.65975525 -38.44049072 134.96139526 C-41.26130411 135.87486573 -44.08369333 136.7833386 -46.90625 137.69140625 C-49.7362659 138.60567436 -52.56594174 139.52098764 -55.39552307 140.43659973 C-57.20503128 141.02169782 -59.01486913 141.60577757 -60.82505798 142.18876648 C-66.52146729 144.02549456 -72.19449471 145.91624417 -77.8449707 147.89038086 C-82.54586648 149.26534446 -86.44240601 149.36620011 -90.96875 147.25390625 C-96.01174548 143.36359545 -96.01174548 143.36359545 -96.54576111 140.41758728 C-96.46869279 134.20478116 -95.43456146 128.98962315 -93.41015625 123.1328125 C-92.98033951 121.83054466 -92.98033951 121.83054466 -92.5418396 120.50196838 C-91.61521379 117.7058997 -90.66776583 114.91744641 -89.71875 112.12890625 C-89.07312643 110.20140185 -88.4286833 108.27350167 -87.78540039 106.34521484 C-86.50835989 102.52200501 -85.22366352 98.70148495 -83.93457031 94.88232422 C-82.37374326 90.2410705 -80.87170804 85.58372265 -79.3984375 80.9140625 C-79.00197021 79.67261475 -78.60550293 78.43116699 -78.19702148 77.15209961 C-77.48309473 74.91268565 -76.77882222 72.67016116 -76.08618164 70.42407227 C-74.2725915 64.83373686 -72.74662305 61.29561633 -68.15625 57.56640625 C-67.41375 56.82390625 -66.67125 56.08140625 -65.90625 55.31640625 C-64.28189047 53.69204672 -62.65337755 52.07179265 -61.015625 50.4609375 C-56.09703282 45.64064888 -56.09703282 45.64064888 -51.59375 40.44140625 C-49.66306618 38.16418943 -47.92693951 36.45058782 -45.671875 34.55078125 C-40.34556644 29.93976649 -35.42507398 24.94326536 -30.46875 19.94140625 C-29.54513672 19.01328125 -28.62152344 18.08515625 -27.66992188 17.12890625 C-25.95366212 15.40399723 -24.23844003 13.67805458 -22.5246582 11.95068359 C-21.7430835 11.16387207 -20.96150879 10.37706055 -20.15625 9.56640625 C-19.33535889 8.72416504 -18.51446777 7.88192383 -17.66870117 7.01416016 C-16.83959229 6.20640137 -16.0104834 5.39864258 -15.15625 4.56640625 C-14.43759766 3.81496338 -13.71894531 3.06352051 -12.97851562 2.28930664 C-8.75264845 -0.29044636 -4.86286731 -0.02558174 0 0 Z M-5.15625 28.56640625 C-6.001875 29.39140625 -6.8475 30.21640625 -7.71875 31.06640625 C-10.16521893 33.49404329 -10.16521893 33.49404329 -12.15625 36.06640625 C-14.3242552 38.77641275 -16.67289538 41.14362126 -19.15625 43.56640625 C-19.98125 44.39140625 -20.80625 45.21640625 -21.65625 46.06640625 C-22.48125 46.89140625 -23.30625 47.71640625 -24.15625 48.56640625 C-24.98125 49.41203125 -25.80625 50.25765625 -26.65625 51.12890625 C-29.04803403 53.46089568 -31.55019339 55.48156096 -34.15625 57.56640625 C-37.8269297 60.96849963 -40.51511279 64.36015069 -43.15625 68.56640625 C-42.61097656 68.90671875 -42.06570312 69.24703125 -41.50390625 69.59765625 C-31.09129295 76.29020771 -21.79539774 84.28811076 -16.15625 95.56640625 C-12.31401433 94.05695652 -10.63629177 91.79797583 -8.15625 88.56640625 C-5.62432819 85.9012254 -3.07892564 83.50388868 -0.21875 81.19140625 C2.68927941 78.82024381 5.01325567 76.13799944 7.41015625 73.26171875 C11.13914274 68.85196361 15.42123687 65.25183385 19.84375 61.56640625 C23.57346943 58.02795448 26.93888447 54.22548534 30.29296875 50.3359375 C31.43068322 49.03773937 32.6231533 47.78700295 33.84375 46.56640625 C33.25207031 46.52902344 32.66039062 46.49164063 32.05078125 46.453125 C27.32944769 46.06032237 23.58392876 45.73989126 19.84375 42.56640625 C17.78691335 38.50433817 17.47171573 34.76512839 17.21875 30.25390625 C17.14398438 28.99964844 17.06921875 27.74539063 16.9921875 26.453125 C16.94320312 25.50050781 16.89421875 24.54789062 16.84375 23.56640625 C14.11291098 23.4309181 11.38883193 23.3321077 8.65625 23.25390625 C7.50286133 23.19106445 7.50286133 23.19106445 6.32617188 23.12695312 C0.71024784 23.00643973 -1.50581129 24.00335787 -5.15625 28.56640625 Z M-56.15625 89.56640625 C-57.49690238 93.50145274 -58.82751071 97.43982271 -60.15625 101.37890625 C-60.72859375 103.05823242 -60.72859375 103.05823242 -61.3125 104.77148438 C-61.6734375 105.84462891 -62.034375 106.91777344 -62.40625 108.0234375 C-62.74140625 109.0131958 -63.0765625 110.0029541 -63.421875 111.02270508 C-64.29493755 113.60552243 -64.29493755 113.60552243 -64.15625 116.56640625 C-54.9439863 114.45633468 -46.07659729 111.64953175 -37.15625 108.56640625 C-39.85185878 100.55127163 -46.74843865 93.54132941 -54.15625 89.56640625 C-54.81625 89.56640625 -55.47625 89.56640625 -56.15625 89.56640625 Z " fill="#000000" transform="translate(209.15625,270.43359375)"/>
<path d="M0 0 C3.90760774 3.12427201 7.37066607 6.57084088 10.82299805 10.18505859 C12.44197703 11.87968623 14.08417415 13.5487149 15.73242188 15.21484375 C16.78006565 16.28507032 17.82633969 17.35663981 18.87109375 18.4296875 C19.60071571 19.17676468 19.60071571 19.17676468 20.34507751 19.93893433 C24.17897128 23.96348544 25.87123101 26.37751078 26.3125 31.9375 C26.20007433 35.71781322 25.46419347 38.0259734 23 41 C19.54936347 43.85909884 16.61395205 44.35891318 12.16015625 44.49609375 C4.9452501 42.83914424 -0.63804596 35.83639201 -5.7421875 30.79321289 C-7.24507276 29.31733868 -8.77023859 27.86725349 -10.296875 26.41601562 C-15.11218701 21.73151934 -19.03859381 17.79807295 -20.05029297 10.94946289 C-19.93553727 6.50128704 -18.27690508 3.23571459 -15.0625 0.125 C-9.99691247 -2.63804775 -5.20644467 -2.40563704 0 0 Z " fill="#000000" transform="translate(167,182)"/>
<path d="M0 0 C2.15538164 0.0031586 4.30938762 -0.02031044 6.46459961 -0.0456543 C7.8428531 -0.04792773 9.22111025 -0.04863058 10.59936523 -0.04760742 C11.84645264 -0.05058838 13.09354004 -0.05356934 14.37841797 -0.05664062 C19.01866705 0.45909291 21.62939296 1.95154876 24.54077148 5.56567383 C26.54753219 10.21290915 26.24090078 13.83474474 24.60327148 18.56567383 C22.29260495 21.95465142 20.50314952 22.76922394 16.72827148 24.31567383 C13.48022461 24.70385742 13.48022461 24.70385742 10.00952148 24.71411133 C8.7475293 24.71797852 7.48553711 24.7218457 6.18530273 24.72583008 C4.87948242 24.71422852 3.57366211 24.70262695 2.22827148 24.69067383 C0.92245117 24.70227539 -0.38336914 24.71387695 -1.72875977 24.72583008 C-2.99075195 24.72196289 -4.25274414 24.7180957 -5.55297852 24.71411133 C-7.27097656 24.70903564 -7.27097656 24.70903564 -9.02368164 24.70385742 C-12.71064287 24.26321789 -15.11304319 23.24439316 -18.27172852 21.31567383 C-21.22072153 16.99048407 -21.91927592 13.49605304 -21.27172852 8.31567383 C-16.305101 -1.08544254 -9.57161314 -0.02941759 0 0 Z " fill="#000000" transform="translate(145.271728515625,247.684326171875)"/>
<path d="M0 0 C3.67268956 1.84700055 5.68231478 4.04694434 7 8 C7.24996969 12.23569327 7.27075794 16.47158864 7.29516602 20.71411133 C7.30667849 22.10776936 7.32711929 23.50138354 7.35668945 24.89477539 C7.39955813 26.91582989 7.41555979 28.93557744 7.42578125 30.95703125 C7.44036377 32.16335205 7.45494629 33.36967285 7.4699707 34.61254883 C6.83387786 39.19737389 4.9097708 42.4994658 1.25 45.375 C-3.39287732 46.66468814 -7.42616322 46.66450886 -11.8125 44.8125 C-15.35096134 41.88063203 -16.85340456 39.25906123 -17.38818359 34.66601562 C-17.39156738 33.42529297 -17.39495117 32.18457031 -17.3984375 30.90625 C-17.40130768 30.23710571 -17.40417786 29.56796143 -17.40713501 28.87854004 C-17.40916792 27.46996205 -17.40369226 26.06135532 -17.39111328 24.65283203 C-17.37504632 22.50618915 -17.39098592 20.36142861 -17.41015625 18.21484375 C-17.40817368 16.84114171 -17.40432971 15.46744083 -17.3984375 14.09375 C-17.39505371 12.85302734 -17.39166992 11.61230469 -17.38818359 10.33398438 C-16.96793394 6.72459486 -16.18776946 4.87076474 -14 2 C-9.53880557 -0.97412962 -5.22952455 -0.74600921 0 0 Z " fill="#000000" transform="translate(232,169)"/>
<path d="M0 0 C0.33 0 0.66 0 1 0 C1 5.28 1 10.56 1 16 C0.67 16 0.34 16 0 16 C0 10.72 0 5.44 0 0 Z " fill="#000000" transform="translate(213,189)"/>
<path d="M0 0 C2.97 0 5.94 0 9 0 C9 0.33 9 0.66 9 1 C6.03 1 3.06 1 0 1 C0 0.67 0 0.34 0 0 Z " fill="#000000" transform="translate(153,246)"/>
<path d="M0 0 C2.97 0 5.94 0 9 0 C9 0.33 9 0.66 9 1 C6.03 1 3.06 1 0 1 C0 0.67 0 0.34 0 0 Z " fill="#000000" transform="translate(143,246)"/>
<path d="M0 0 C1.65 0 3.3 0 5 0 C5 0.33 5 0.66 5 1 C3.35 1 1.7 1 0 1 C0 0.67 0 0.34 0 0 Z " fill="#000000" transform="translate(235,318)"/>
<path d="M0 0 C1.65 0 3.3 0 5 0 C5 0.33 5 0.66 5 1 C3.35 1 1.7 1 0 1 C0 0.67 0 0.34 0 0 Z " fill="#000000" transform="translate(372,99)"/>
<path d="" fill="#000000" transform="translate(0,0)"/>
<path d="" fill="#000000" transform="translate(0,0)"/>
<path d="M0 0 C2 1 2 1 2 1 Z " fill="#000000" transform="translate(282,223)"/>
<path d="" fill="#000000" transform="translate(0,0)"/>
<path d="" fill="#000000" transform="translate(0,0)"/>
<path d="" fill="#000000" transform="translate(0,0)"/>
<path d="" fill="#000000" transform="translate(0,0)"/>
<path d="" fill="#000000" transform="translate(0,0)"/>
</svg>
